<?xml version="1.0" standalone="no"?>
<!DOCTYPE svg PUBLIC "-//W3C//DTD SVG 20010904//EN"
 "http://www.w3.org/TR/2001/REC-SVG-20010904/DTD/svg10.dtd">
<svg version="1.0" xmlns="http://www.w3.org/2000/svg"
 width="449.000000pt" height="450.000000pt" viewBox="0 0 449.000000 450.000000"
 preserveAspectRatio="xMidYMid meet">

<g transform="translate(0.000000,450.000000) scale(0.100000,-0.100000)"
fill="#000000" stroke="none">
<path d="M450 4380 c-146 -65 -269 -115 -275 -111 -12 9 -146 95 -162 105 -7
4 -13 5 -13 1 0 -3 39 -31 86 -62 l86 -56 -86 -45 c-48 -24 -85 -47 -82 -49 3
-3 43 15 90 41 73 39 85 43 90 28 6 -21 203 -921 260 -1187 5 -22 12 -29 -258
274 -99 110 -181 199 -184 197 -2 -3 98 -118 221 -258 124 -139 224 -254 223
-256 -2 -1 -97 -30 -212 -63 -244 -70 -238 -68 -233 -74 3 -2 103 24 222 59
155 45 214 59 205 47 -19 -23 -287 -332 -309 -356 -19 -19 -19 -19 -69 30 -27
27 -50 44 -50 39 0 -6 22 -29 49 -52 l48 -41 -49 -172 c-26 -95 -47 -177 -45
-182 1 -4 22 61 46 145 24 84 48 157 52 162 5 6 9 17 9 26 0 12 51 23 283 58
155 23 444 67 642 97 198 31 366 54 373 53 11 -3 -149 -180 -636 -703 -41 -44
-187 -202 -326 -352 -138 -149 -252 -270 -254 -268 -2 1 -9 76 -16 166 -7 90
-14 142 -14 114 -1 -27 3 -104 8 -169 6 -66 9 -120 7 -122 -1 -1 -38 6 -82 17
-44 10 -84 17 -90 16 -9 -3 195 -54 493 -123 61 -14 112 -29 112 -32 0 -4 -26
-21 -58 -38 -31 -17 -110 -61 -175 -99 l-118 -68 -22 20 c-12 10 -70 63 -130
117 -59 54 -107 94 -107 89 0 -5 54 -57 120 -116 66 -60 120 -111 120 -115 0
-4 -54 -38 -121 -76 -66 -37 -118 -70 -115 -73 5 -5 293 156 501 280 65 39 93
51 101 43 8 -8 -9 -87 -58 -281 -38 -148 -107 -421 -154 -605 -46 -184 -87
-342 -90 -350 -6 -16 -25 18 -167 290 l-96 186 281 372 c154 205 278 375 276
378 -3 2 -130 -163 -283 -367 l-278 -372 -14 28 c-8 14 -17 25 -19 22 -5 -5
31 -77 208 -411 43 -81 78 -150 78 -151 0 -2 -35 -1 -78 1 -191 11 -216 11
-192 5 35 -11 578 -36 587 -28 3 4 -29 8 -73 8 -43 1 -108 4 -144 8 l-65 6
224 143 c123 78 225 141 228 139 2 -2 -6 -66 -17 -140 -12 -75 -20 -145 -18
-154 2 -10 12 43 23 117 10 74 21 146 25 159 6 23 18 13 174 -130 92 -85 173
-155 179 -157 7 -2 0 7 -14 20 -76 67 -319 291 -319 294 0 2 24 2 53 -1 68 -7
755 -69 1014 -91 139 -12 200 -21 195 -28 -3 -6 -7 -17 -8 -24 -1 -7 -25 -48
-53 -92 -28 -44 -47 -80 -42 -80 9 0 171 256 312 492 35 59 66 107 69 108 3 0
74 -135 159 -300 85 -165 156 -298 158 -296 3 2 -23 57 -56 121 -43 83 -56
115 -43 110 9 -3 110 -58 224 -121 114 -63 216 -114 226 -114 12 0 77 83 207
265 103 146 190 263 192 261 4 -4 -19 -138 -62 -360 -15 -75 -25 -143 -23
-153 2 -10 26 103 53 250 31 165 53 261 57 250 4 -10 30 -121 58 -248 55 -250
60 -268 66 -263 2 3 -23 123 -56 269 -33 145 -60 268 -60 272 0 8 35 -14 237
-147 77 -51 138 -84 144 -80 7 4 9 3 6 -3 -4 -6 29 -34 73 -63 45 -29 83 -57
86 -62 3 -5 -29 -47 -72 -93 -42 -47 -75 -87 -72 -90 2 -2 38 33 78 80 41 46
76 82 78 80 2 -2 -6 -35 -18 -75 -12 -39 -19 -77 -16 -83 3 -8 5 -8 5 1 1 8
11 46 23 85 l22 72 13 -85 12 -85 -5 84 -6 84 39 -24 c21 -12 57 -36 81 -52
24 -16 45 -27 47 -25 7 7 -176 148 -185 143 -11 -7 -54 14 -46 22 3 3 12 0 21
-7 9 -7 18 -11 21 -8 3 3 -10 14 -28 25 -60 36 -533 326 -536 329 -2 1 90 106
204 233 114 127 209 230 210 228 2 -1 57 -153 124 -337 67 -184 145 -398 173
-475 28 -77 51 -157 51 -178 0 -20 4 -37 8 -37 4 0 8 7 8 15 0 19 11 19 36 0
29 -22 43 -17 14 5 l-25 20 120 -4 120 -4 -127 10 c-109 9 -128 13 -128 28 0
9 11 86 24 171 13 85 39 254 57 376 19 123 37 223 41 223 4 0 33 -50 64 -111
30 -61 58 -109 61 -106 3 3 -22 58 -56 121 -33 63 -61 119 -61 125 0 6 27 25
60 43 33 18 60 36 60 40 0 4 -29 -8 -64 -28 l-64 -35 -6 53 c-7 59 -46 537
-46 559 0 7 21 -7 48 -31 111 -106 132 -124 132 -115 -1 6 -36 41 -80 79 -44
39 -78 72 -76 74 2 1 31 -4 64 -12 33 -9 68 -16 78 -15 17 1 -3 7 -129 40 -29
8 -38 14 -34 27 2 9 43 151 91 314 79 274 101 361 74 298 -9 -21 -18 22 -53
250 -24 151 -48 300 -53 330 -6 30 -8 57 -6 59 3 3 31 -22 64 -54 33 -33 60
-55 60 -50 0 6 -28 35 -62 66 l-63 57 64 18 c36 10 60 19 54 21 -7 3 -35 -3
-64 -11 -29 -9 -53 -15 -55 -13 -1 1 6 45 17 97 56 287 110 585 107 600 -2 13
-257 311 -308 360 -3 3 -18 19 -33 37 l-29 31 144 72 c152 77 228 119 228 126
0 3 -84 -39 -186 -92 -169 -88 -186 -95 -181 -73 20 85 98 502 94 506 -3 2 -8
-4 -11 -14 -7 -25 -86 -450 -86 -465 0 -6 -2 -9 -4 -7 -3 3 -17 108 -31 234
-27 243 -32 277 -34 232 0 -16 10 -128 25 -249 14 -122 24 -232 22 -246 -2
-20 -33 -41 -173 -122 -93 -54 -171 -97 -172 -96 -3 2 80 282 163 550 30 98
53 180 51 183 -5 5 -24 -53 -143 -447 -42 -140 -79 -259 -82 -264 -4 -7 -110
432 -112 465 0 3 47 58 105 122 96 108 112 127 102 127 -2 0 -51 -52 -108
-116 l-103 -116 -26 110 c-14 61 -29 114 -34 119 -5 5 -7 1 -4 -7 12 -33 159
-692 155 -696 -2 -2 -95 121 -206 274 -192 262 -202 279 -197 312 15 83 15
123 1 56 -8 -38 -17 -71 -19 -74 -3 -2 -64 29 -136 68 -72 40 -133 71 -135 69
-2 -3 52 -35 121 -72 68 -38 124 -72 124 -76 0 -5 -19 -11 -42 -15 -24 -3
-130 -21 -236 -39 l-193 -34 -60 119 c-34 66 -63 117 -66 115 -2 -3 22 -55 54
-116 65 -125 65 -125 -21 -136 -77 -9 -428 -76 -373 -70 l47 5 -222 -218
c-122 -119 -306 -299 -408 -399 -102 -100 -186 -178 -188 -173 -3 7 101 517
133 656 4 18 23 23 176 49 95 16 168 30 162 32 -6 2 -80 -8 -163 -22 -83 -15
-153 -25 -155 -23 -2 2 9 24 24 48 16 25 74 117 129 205 55 88 99 162 96 164
-6 6 6 24 -176 -269 -91 -146 -214 -341 -273 -435 -60 -93 -115 -182 -124
-197 -31 -54 -32 -76 17 466 l17 188 177 121 c98 66 176 122 174 124 -2 3 -81
-48 -175 -111 -93 -64 -175 -116 -180 -116 -6 0 -67 52 -136 116 -69 64 -128
114 -131 112 -2 -3 48 -51 111 -108 63 -57 113 -105 111 -107 -2 -2 -28 5 -57
15 -30 11 -157 56 -284 101 -126 45 -240 86 -253 91 -13 6 -33 10 -45 9 -12
-1 -141 -54 -287 -119z m280 -256 l0 -366 -75 69 c-41 38 -160 148 -264 244
-104 96 -190 177 -190 180 -1 5 508 235 527 238 1 1 2 -164 2 -365z m395 232
c132 -48 245 -84 253 -81 7 2 11 1 7 -4 -3 -5 0 -11 6 -13 7 -2 -11 -22 -38
-43 -93 -74 -594 -450 -603 -453 -10 -4 -14 710 -4 720 6 7 38 -4 379 -126z
m2130 -89 c-42 -93 -84 -177 -89 -177 -6 0 -79 201 -74 205 4 4 157 39 190 44
4 1 -8 -32 -27 -72z m259 -221 c122 -168 193 -273 187 -279 -6 -6 -149 5 -378
28 -202 20 -399 40 -436 42 -55 5 -66 8 -55 18 21 20 325 205 336 205 5 0 124
-65 263 -145 140 -80 259 -145 264 -145 13 0 -56 41 -304 180 -112 63 -205
120 -208 126 -6 17 117 258 127 248 4 -5 96 -130 204 -278z m-472 212 c-56
-95 -198 -329 -221 -365 l-26 -42 -150 131 c-204 178 -227 199 -223 203 4 4
587 103 616 104 l24 1 -20 -32z m84 -96 c18 -47 30 -88 26 -92 -37 -25 -321
-200 -326 -200 -5 0 129 226 222 374 29 46 27 48 78 -82z m-1741 -238 c-14
-170 -31 -327 -36 -350 l-11 -40 -369 -119 c-203 -65 -372 -116 -374 -113 -5
5 474 678 483 678 4 0 63 -95 131 -210 68 -116 126 -208 128 -206 3 2 -52 100
-122 216 -123 206 -126 213 -108 231 29 29 297 229 301 225 2 -2 -9 -143 -23
-312z m-905 51 c118 -109 223 -206 234 -216 18 -17 15 -26 -104 -346 -67 -180
-127 -341 -133 -357 -9 -27 -11 -28 -18 -10 -4 11 -19 76 -34 145 -14 68 -37
171 -50 229 -49 210 -175 790 -175 802 0 7 15 -2 33 -18 17 -17 129 -120 247
-229z m2116 36 c146 -129 183 -166 171 -172 -9 -5 -130 -53 -269 -108 -139
-54 -401 -155 -581 -225 -181 -71 -330 -126 -332 -124 -5 5 809 797 817 795 4
-1 91 -76 194 -166z m-986 -318 c-34 -164 -63 -304 -66 -311 -2 -8 -37 17 -93
69 l-89 82 59 91 c32 50 101 157 151 237 51 80 94 142 96 138 2 -5 -24 -143
-58 -306z m-576 255 c-28 -46 -434 -609 -434 -602 0 5 32 96 71 201 l72 193
146 110 c80 60 147 110 149 110 2 0 0 -6 -4 -12z m3066 -385 l0 -387 -171 274
c-94 151 -172 280 -173 287 -1 9 309 201 342 212 1 1 2 -173 2 -386z m202 174
c167 -188 175 -200 172 -235 -2 -20 -26 -156 -53 -302 -28 -146 -53 -281 -56
-300 -4 -19 -9 -41 -11 -49 -3 -8 -52 50 -119 140 l-114 154 42 45 c23 25 102
107 177 183 74 75 132 137 129 137 -3 0 -85 -80 -182 -177 l-177 -178 0 393
c0 217 4 392 9 390 4 -1 87 -92 183 -201z m-1463 88 c8 4 788 -67 866 -80 27
-4 42 -23 121 -153 50 -81 129 -207 174 -280 58 -93 80 -136 72 -144 -7 -7
-94 -4 -289 11 -153 12 -288 23 -300 25 -13 2 -23 0 -23 -3 0 -4 132 -17 293
-29 354 -28 344 -26 351 -60 6 -25 75 -598 146 -1212 17 -140 32 -273 36 -295
5 -37 2 -35 -38 40 -24 44 -92 172 -150 285 -58 113 -227 442 -377 732 -149
289 -271 530 -271 535 0 9 -290 34 -1285 113 -275 22 -520 42 -544 46 -48 6
-78 -6 814 339 77 30 190 74 250 98 79 31 115 41 128 35 9 -5 21 -6 26 -3z
m-1484 -337 c9 -57 84 -682 82 -685 -1 -1 -43 7 -92 17 -261 56 -858 180 -863
180 -8 0 850 518 860 519 4 1 10 -14 13 -31z m104 -59 l81 -76 -10 -54 c-6
-30 -26 -141 -45 -248 -20 -107 -37 -196 -38 -198 -2 -2 -40 297 -77 605 -3
29 -3 51 1 50 3 -2 43 -37 88 -79z m-180 67 c-12 -12 -793 -475 -796 -472 -2
2 17 60 42 129 l46 125 107 33 c59 19 213 68 342 110 215 70 271 86 259 75z
m776 -191 c237 -20 442 -39 458 -43 24 -6 -11 -23 -240 -119 -472 -197 -802
-333 -811 -333 -5 0 2 57 15 128 12 70 32 181 43 247 31 182 25 168 68 162 20
-3 231 -22 467 -42z m1370 -109 c11 -4 309 -576 303 -582 -2 -2 -152 82 -334
186 -181 104 -434 249 -561 322 -128 73 -233 135 -233 138 0 5 804 -58 825
-64z m-855 -268 c0 -194 -4 -318 -9 -312 -31 32 -390 468 -388 471 5 4 381
162 390 162 4 1 7 -144 7 -321z m313 154 c161 -93 417 -240 569 -328 152 -87
274 -162 270 -165 -4 -4 -227 -86 -497 -184 -269 -98 -525 -190 -567 -206
l-78 -28 0 539 c0 297 3 540 6 540 3 0 137 -76 297 -168z m1467 -311 c0 -27 4
-51 8 -53 4 -1 29 -142 55 -313 l48 -310 -75 -255 c-41 -140 -75 -246 -75
-235 -1 11 6 166 14 345 8 179 16 422 18 540 6 269 2 214 -23 -385 -12 -263
-22 -480 -23 -482 -2 -1 -22 161 -46 360 -23 199 -62 529 -86 732 -25 204 -45
378 -45 389 0 10 51 -49 115 -133 110 -145 115 -153 115 -200z m-1987 -149
c191 -422 203 -452 183 -457 -18 -4 -1442 -236 -1536 -250 -31 -5 26 55 555
579 325 321 591 583 592 582 1 -1 94 -205 206 -454z m-303 376 c-41 -39 -267
-260 -501 -492 -234 -231 -461 -455 -504 -496 -78 -74 -78 -75 -53 -30 14 25
88 158 163 295 251 454 276 500 286 510 9 9 657 282 674 284 6 0 -24 -31 -65
-71z m325 -188 c70 -85 140 -169 156 -186 l29 -30 -2 -197 -3 -196 -84 187
c-47 103 -131 290 -188 415 -57 126 -103 230 -103 233 0 7 58 -60 195 -226z
m-1689 134 c121 -25 316 -65 434 -90 308 -63 297 -56 135 -82 -317 -49 -1125
-172 -1135 -172 -6 0 66 88 161 195 94 107 174 195 179 195 4 0 106 -21 226
-46z m690 -246 c-13 -24 -167 -302 -341 -618 -419 -758 -412 -745 -422 -743
-137 29 -422 99 -421 104 3 6 211 232 957 1036 134 145 246 263 248 263 2 0
-7 -19 -21 -42z m2441 -266 c39 -75 134 -258 211 -407 77 -148 165 -321 196
-382 l56 -113 -559 0 -559 0 50 93 c28 50 72 130 97 177 338 613 413 752 409
755 -2 3 -37 -55 -76 -128 -70 -128 -147 -269 -226 -412 -22 -38 -63 -113 -91
-165 -181 -329 -173 -317 -208 -324 -32 -6 -402 -60 -957 -141 -168 -25 -316
-47 -330 -51 -37 -8 -27 -2 225 161 127 82 273 176 325 210 52 34 320 207 595
385 275 177 553 357 617 399 65 42 126 77 136 78 14 1 35 -31 89 -135z m-152
119 c-6 -5 -239 -158 -520 -339 -280 -181 -685 -443 -900 -582 -214 -139 -397
-255 -405 -258 -8 -3 55 68 140 159 85 90 217 232 294 314 77 83 179 189 226
236 l85 85 480 174 c264 95 507 183 540 196 70 26 72 27 60 15z m-1156 -438
c-151 -173 -734 -781 -743 -776 -6 4 -83 57 -171 118 -273 190 -609 421 -622
429 -7 4 -13 5 -13 2 0 -3 178 -128 395 -278 l396 -273 -552 -3 c-304 -1 -554
0 -556 2 -5 5 296 549 308 557 6 3 117 23 247 44 130 21 473 78 762 125 289
48 538 88 554 89 l28 1 -33 -37z m420 -830 c-112 -126 -289 -324 -394 -441
l-190 -212 -21 23 c-32 31 -533 661 -530 664 1 2 189 30 417 64 228 34 527 78
664 98 138 20 252 36 254 35 2 -2 -88 -106 -200 -231z m1347 212 c4 -14 -8
-319 -25 -678 -17 -359 -31 -670 -31 -692 0 -22 -4 -35 -9 -30 -4 6 -57 145
-116 310 -59 165 -134 372 -166 459 -33 88 -59 165 -59 171 0 6 87 109 194
228 107 119 198 222 201 229 8 16 6 14 -450 -491 -236 -262 -382 -416 -386
-408 -10 18 -259 896 -259 912 0 12 87 14 550 15 l550 0 6 -25z m-1201 -756
c-36 -394 -65 -719 -65 -723 0 -14 -29 0 -253 124 l-225 124 77 156 c43 85
179 359 302 609 123 250 225 447 227 440 1 -8 -27 -336 -63 -730z m138 556
c25 -88 82 -287 126 -442 l81 -282 -141 -198 c-78 -109 -167 -233 -197 -275
-30 -43 -57 -78 -59 -78 -2 0 -1 21 2 48 10 89 125 1369 125 1393 1 42 15 3
63 -166z m-384 -407 c-160 -321 -295 -589 -299 -597 -6 -10 -33 36 -91 150
-46 90 -84 168 -84 173 0 11 747 854 757 855 5 1 -123 -261 -283 -581z m1491
232 l20 -245 -25 -165 c-14 -91 -37 -236 -50 -324 -26 -169 -39 -214 -30 -100
3 38 14 260 25 494 21 442 32 626 37 600 1 -8 12 -125 23 -260z m-2489 -5
c160 -561 249 -879 246 -881 -2 -2 -216 159 -477 356 -861 653 -937 710 -945
710 -9 0 64 -56 436 -337 139 -106 373 -283 519 -394 146 -111 307 -233 359
-272 52 -39 89 -73 84 -74 -9 -3 -1266 106 -1270 110 0 1 -8 49 -17 107 -8 58
-40 271 -71 473 -31 203 -53 378 -50 388 6 19 23 19 568 17 l561 -3 57 -200z
m-1131 -318 c33 -221 62 -410 64 -420 3 -10 1 -17 -4 -15 -4 2 -71 79 -148
171 l-140 168 65 252 c35 139 69 270 75 292 l11 40 8 -43 c4 -23 35 -223 69
-445z m1367 156 c133 -166 247 -310 254 -321 10 -17 2 -35 -61 -138 -140 -226
-162 -258 -170 -243 -4 8 -47 153 -95 324 -48 171 -111 395 -141 498 -56 196
-62 223 -41 197 7 -9 121 -151 254 -317z m-1433 -461 l136 -164 -172 -110
c-95 -60 -200 -127 -233 -148 -32 -22 -60 -38 -62 -37 -2 3 153 611 162 636 7
18 0 26 169 -177z m3293 -235 c19 -11 32 -22 29 -24 -5 -5 -116 66 -116 74 0
3 12 -3 27 -12 14 -10 41 -27 60 -38z"/>
<path d="M2840 3816 c0 -2 102 -58 228 -124 125 -66 399 -210 609 -321 344
-181 436 -227 378 -188 -11 8 -96 53 -190 102 -93 48 -197 102 -230 120 -126
69 -786 415 -790 415 -3 0 -5 -2 -5 -4z"/>
<path d="M4311 4496 c4 -4 139 -93 167 -110 6 -4 12 -5 12 -1 0 7 -165 115
-176 115 -4 0 -5 -2 -3 -4z"/>
<path d="M2243 4163 c9 -2 23 -2 30 0 6 3 -1 5 -18 5 -16 0 -22 -2 -12 -5z"/>
<path d="M2105 4145 c-80 -17 -39 -17 50 -1 39 8 57 14 40 14 -16 0 -57 -6
-90 -13z"/>
<path d="M113 2455 c0 -27 2 -38 4 -22 2 15 2 37 0 50 -2 12 -4 0 -4 -28z"/>
<path d="M123 2300 c0 -25 2 -35 4 -22 2 12 2 32 0 45 -2 12 -4 2 -4 -23z"/>
<path d="M133 2150 c0 -30 2 -43 4 -27 2 15 2 39 0 55 -2 15 -4 2 -4 -28z"/>
<path d="M143 2000 c0 -36 2 -50 4 -32 2 17 2 47 0 65 -2 17 -4 3 -4 -33z"/>
<path d="M153 1860 c0 -36 2 -50 4 -32 2 17 2 47 0 65 -2 17 -4 3 -4 -33z"/>
<path d="M1917 93 c-70 -48 -125 -88 -123 -90 2 -3 60 32 128 78 131 87 148
99 133 98 -6 0 -67 -39 -138 -86z"/>
</g>
</svg>
